<svg xmlns="http://www.w3.org/2000/svg" xmlns:xlink="http://www.w3.org/1999/xlink" id="visual" viewBox="0 0 1500 300" width="1500" height="300" version="1.1"><rect x="0" y="0" width="1500" height="300" fill="#e2dfdf"/><path d="M0 134L41.7 127.8C83.3 121.7 166.7 109.3 250 104.2C333.3 99 416.7 101 500 98.2C583.3 95.3 666.7 87.7 750 83.7C833.3 79.7 916.7 79.3 1000 81.8C1083.3 84.3 1166.7 89.7 1250 98C1333.3 106.3 1416.7 117.7 1458.3 123.3L1500 129L1500 301L1458.3 301C1416.7 301 1333.3 301 1250 301C1166.7 301 1083.3 301 1000 301C916.7 301 833.3 301 750 301C666.7 301 583.3 301 500 301C416.7 301 333.3 301 250 301C166.7 301 83.3 301 41.7 301L0 301Z" fill="#cc24db"/><path d="M0 89L41.7 92.2C83.3 95.3 166.7 101.7 250 112.2C333.3 122.7 416.7 137.3 500 144C583.3 150.7 666.7 149.3 750 150.7C833.3 152 916.7 156 1000 153.3C1083.3 150.7 1166.7 141.3 1250 131.5C1333.3 121.7 1416.7 111.3 1458.3 106.2L1500 101L1500 301L1458.3 301C1416.7 301 1333.3 301 1250 301C1166.7 301 1083.3 301 1000 301C916.7 301 833.3 301 750 301C666.7 301 583.3 301 500 301C416.7 301 333.3 301 250 301C166.7 301 83.3 301 41.7 301L0 301Z" fill="#b820c5"/><path d="M0 177L41.7 177.2C83.3 177.3 166.7 177.7 250 174.2C333.3 170.7 416.7 163.3 500 159.5C583.3 155.7 666.7 155.3 750 151.8C833.3 148.3 916.7 141.7 1000 141.3C1083.3 141 1166.7 147 1250 150.2C1333.3 153.3 1416.7 153.7 1458.3 153.8L1500 154L1500 301L1458.3 301C1416.7 301 1333.3 301 1250 301C1166.7 301 1083.3 301 1000 301C916.7 301 833.3 301 750 301C666.7 301 583.3 301 500 301C416.7 301 333.3 301 250 301C166.7 301 83.3 301 41.7 301L0 301Z" fill="#a21caf"/><path d="M0 152L41.7 153.8C83.3 155.7 166.7 159.3 250 159.2C333.3 159 416.7 155 500 161C583.3 167 666.7 183 750 183.2C833.3 183.3 916.7 167.7 1000 161.2C1083.3 154.7 1166.7 157.3 1250 158.2C1333.3 159 1416.7 158 1458.3 157.5L1500 157L1500 301L1458.3 301C1416.7 301 1333.3 301 1250 301C1166.7 301 1083.3 301 1000 301C916.7 301 833.3 301 750 301C666.7 301 583.3 301 500 301C416.7 301 333.3 301 250 301C166.7 301 83.3 301 41.7 301L0 301Z" fill="#8f199a"/><path d="M0 200L41.7 199.8C83.3 199.7 166.7 199.3 250 200.3C333.3 201.3 416.7 203.7 500 201.5C583.3 199.3 666.7 192.7 750 196.5C833.3 200.3 916.7 214.7 1000 214.3C1083.3 214 1166.7 199 1250 194.7C1333.3 190.3 1416.7 196.7 1458.3 199.8L1500 203L1500 301L1458.3 301C1416.7 301 1333.3 301 1250 301C1166.7 301 1083.3 301 1000 301C916.7 301 833.3 301 750 301C666.7 301 583.3 301 500 301C416.7 301 333.3 301 250 301C166.7 301 83.3 301 41.7 301L0 301Z" fill="#7a1584"/><path d="M0 242L41.7 244.2C83.3 246.3 166.7 250.7 250 251.7C333.3 252.7 416.7 250.3 500 246.2C583.3 242 666.7 236 750 237.2C833.3 238.3 916.7 246.7 1000 248C1083.3 249.3 1166.7 243.7 1250 239.5C1333.3 235.3 1416.7 232.7 1458.3 231.3L1500 230L1500 301L1458.3 301C1416.7 301 1333.3 301 1250 301C1166.7 301 1083.3 301 1000 301C916.7 301 833.3 301 750 301C666.7 301 583.3 301 500 301C416.7 301 333.3 301 250 301C166.7 301 83.3 301 41.7 301L0 301Z" fill="#66126e"/><path d="M0 279L41.7 275C83.3 271 166.7 263 250 262.2C333.3 261.3 416.7 267.7 500 268.8C583.3 270 666.7 266 750 265.3C833.3 264.7 916.7 267.3 1000 264.5C1083.3 261.7 1166.7 253.3 1250 252C1333.3 250.7 1416.7 256.3 1458.3 259.2L1500 262L1500 301L1458.3 301C1416.7 301 1333.3 301 1250 301C1166.7 301 1083.3 301 1000 301C916.7 301 833.3 301 750 301C666.7 301 583.3 301 500 301C416.7 301 333.3 301 250 301C166.7 301 83.3 301 41.7 301L0 301Z" fill="#520e58"/></svg>